<svg width="358" height="440" xmlns="http://www.w3.org/2000/svg" xmlns:xlink="http://www.w3.org/1999/xlink" overflow="hidden"><defs><clipPath id="clip0"><rect x="224" y="82" width="358" height="440"/></clipPath></defs><g clip-path="url(#clip0)" transform="translate(-224 -82)"><path d="M287.393 264.257 459.678 172.699 548.839 340.475 376.555 432.033Z" fill="#4472C4" fill-rule="nonzero" fill-opacity="1"/><path d="M459.678 172.699 485.883 87.0534 575.044 254.829 548.839 340.475Z" fill="#375C9E" fill-rule="evenodd" fill-opacity="1"/><path d="M287.393 264.257 313.598 178.611 485.883 87.0534 459.678 172.699Z" fill="#698ED0" fill-rule="evenodd" fill-opacity="1"/><path d="M287.393 264.257 313.598 178.611 485.883 87.0534 575.044 254.829 548.839 340.475 376.555 432.033ZM287.393 264.257 459.678 172.699 485.883 87.0534M459.678 172.699 548.839 340.475" stroke="#2F528F" stroke-width="4.58333" stroke-linecap="butt" stroke-linejoin="miter" stroke-miterlimit="8" stroke-opacity="1" fill="none" fill-rule="evenodd"/><path d="M337 285.5C337 271.417 348.864 260 363.5 260 378.136 260 390 271.417 390 285.5 390 299.583 378.136 311 363.5 311 348.864 311 337 299.583 337 285.5Z" fill="#2F5597" fill-rule="evenodd" fill-opacity="1"/><path d="M447 324.5C447 310.417 459.088 299 474 299 488.912 299 501 310.417 501 324.5 501 338.583 488.912 350 474 350 459.088 350 447 338.583 447 324.5Z" fill="#2F5597" fill-rule="evenodd" fill-opacity="1"/><path d="M279.382 361.18 385.649 412.716 335.462 516.202 229.195 464.667Z" fill="#A5A5A5" fill-rule="nonzero" fill-opacity="1"/><path d="M385.649 412.716 436.873 394.949 386.686 498.435 335.462 516.202Z" fill="#858585" fill-rule="evenodd" fill-opacity="1"/><path d="M279.382 361.18 330.606 343.414 436.873 394.949 385.649 412.716Z" fill="#B7B7B7" fill-rule="evenodd" fill-opacity="1"/><path d="M279.382 361.18 330.606 343.414 436.873 394.949 386.686 498.435 335.462 516.202 229.195 464.667ZM279.382 361.18 385.649 412.716 436.873 394.949M385.649 412.716 335.462 516.202" stroke="#787878" stroke-width="4.58333" stroke-linecap="butt" stroke-linejoin="miter" stroke-miterlimit="8" stroke-opacity="1" fill="none" fill-rule="evenodd"/><path d="M286.688 392.872C293.665 387.776 303.611 389.519 308.903 396.765 314.194 404.011 312.828 414.015 305.85 419.111 298.873 424.207 288.927 422.464 283.635 415.218 278.344 407.972 279.71 397.968 286.688 392.872Z" fill="#7C7C7C" fill-rule="evenodd" fill-opacity="1"/><path d="M307.084 460.929C314.061 455.833 324.007 457.576 329.299 464.822 334.591 472.067 333.224 482.072 326.247 487.168 319.269 492.263 309.323 490.52 304.031 483.275 298.74 476.029 300.106 466.024 307.084 460.929Z" fill="#7C7C7C" fill-rule="evenodd" fill-opacity="1"/><path d="M258.572 459.778C253.477 452.801 255.22 442.855 262.465 437.563 269.711 432.271 279.716 433.638 284.811 440.616 289.907 447.593 288.164 457.539 280.918 462.831 273.673 468.122 263.668 466.756 258.572 459.778Z" fill="#7C7C7C" fill-rule="evenodd" fill-opacity="1"/><path d="M326.629 439.382C321.533 432.405 323.276 422.459 330.522 417.167 337.768 411.875 347.773 413.242 352.868 420.219 357.964 427.197 356.221 437.143 348.975 442.434 341.729 447.726 331.725 446.359 326.629 439.382Z" fill="#7C7C7C" fill-rule="evenodd" fill-opacity="1"/></g></svg>