<svg width="389" height="275" xmlns="http://www.w3.org/2000/svg" xmlns:xlink="http://www.w3.org/1999/xlink" overflow="hidden"><defs><clipPath id="clip0"><rect x="1274" y="375" width="389" height="275"/></clipPath></defs><g clip-path="url(#clip0)" transform="translate(-1274 -375)"><path d="M1278 397.229C1278 387.161 1286.16 379 1296.23 379L1642.77 379C1652.84 379 1661 387.161 1661 397.229L1661 421.771C1661 431.839 1652.84 440 1642.77 440L1296.23 440C1286.16 440 1278 431.839 1278 421.771Z" fill="#262626" fill-rule="evenodd" fill-opacity="1"/><path d="M1278 501.228C1278 491.161 1286.16 483 1296.23 483L1642.77 483C1652.84 483 1661 491.161 1661 501.228L1661 525.772C1661 535.839 1652.84 544 1642.77 544L1296.23 544C1286.16 544 1278 535.839 1278 525.772Z" fill="#262626" fill-rule="evenodd" fill-opacity="1"/><path d="M1278 604.93C1278 595.028 1286.03 587 1295.93 587L1643.07 587C1652.97 587 1661 595.028 1661 604.93L1661 629.07C1661 638.972 1652.97 647 1643.07 647L1295.93 647C1286.03 647 1278 638.972 1278 629.07Z" fill="#262626" fill-rule="evenodd" fill-opacity="1"/></g></svg>